# xmcd CD database file
#
# Track frame offsets:
#	150
#	71973
#	101227
#	141656
#	172035
#	213888
#	265041
#
# Disc length: 4364 seconds
#
# Revision: 0
# Processed by: cddbd v1.5.1PL0 Copyright (c) Steve Scherf et al.
# Submitted via: CDex 1.51
#
DISCID=71110a07
DTITLE=kunstwerktrio - odyssee
DYEAR=1900
DGENRE=Jazz
TTITLE0=odyssee
TTITLE1=first walk
TTITLE2=intermezzo nr 3
TTITLE3=train talk
TTITLE4=präludium in c-moll bwv 999
TTITLE5=moondance
TTITLE6=mooving on
EXTD=
EXTT0=
EXTT1=
EXTT2=
EXTT3=
EXTT4=
EXTT5=
EXTT6=
PLAYORDER=
